PathFileType	4	(X/Y/Z)	Walk3.trc
DataRate	CameraRate	NumFrames	NumMarkers	Units	OrigDataRate	OrigDataStartFrame	OrigNumFrames
200.000000	200.000000	6	59	mm	200.000000	468	545
Frame#	Times		LBHD		C7		T10		RBack		LPSI		RPSI		RCAR		LElbowM		RElbowM		LUA1		LLFC		LFHD		RFA1		LWRU		LCAR		RTB1		LACR1		RUA1		CLAV		RTH2		RTH3		LWRR		RToe		RACR1		RTB3		RTB4		RWRU		RCAL		RMT5		RBHD		RTH4		RLFC		LFA1		RTH1		RWRR		RMT1		RFHD		LTH1		STRN		LTH3		LTH4		RTB2		RElbow		RMMAL		LElbow		LTH2		LTB3		RASI		LASI		LCAL		LMT1		LTB2		LLMAL		RLMAL		LMT5		LToe		LTB1		LMMAL		LTB4
			X1	Y1	Z1	X2	Y2	Z2	X3	Y3	Z3	X4	Y4	Z4	X5	Y5	Z5	X6	Y6	Z6	X7	Y7	Z7	X8	Y8	Z8	X9	Y9	Z9	X10	Y10	Z10	X11	Y11	Z11	X12	Y12	Z12	X13	Y13	Z13	X14	Y14	Z14	X15	Y15	Z15	X16	Y16	Z16	X17	Y17	Z17	X18	Y18	Z18	X19	Y19	Z19	X20	Y20	Z20	X21	Y21	Z21	X22	Y22	Z22	X23	Y23	Z23	X24	Y24	Z24	X25	Y25	Z25	X26	Y26	Z26	X27	Y27	Z27	X28	Y28	Z28	X29	Y29	Z29	X30	Y30	Z30	X31	Y31	Z31	X32	Y32	Z32	X33	Y33	Z33	X34	Y34	Z34	X35	Y35	Z35	X36	Y36	Z36	X37	Y37	Z37	X38	Y38	Z38	X39	Y39	Z39	X40	Y40	Z40	X41	Y41	Z41	X42	Y42	Z42	X43	Y43	Z43	X44	Y44	Z44	X45	Y45	Z45	X46	Y46	Z46	X47	Y47	Z47	X48	Y48	Z48	X49	Y49	Z49	X50	Y50	Z50	X51	Y51	Z51	X52	Y52	Z52	X53	Y53	Z53	X54	Y54	Z54	X55	Y55	Z55	X56	Y56	Z56	X57	Y57	Z57	X58	Y58	Z58	X59	Y59	Z59

468	2.34	493.51	1480.7	-97.726	459.73	1342.6	-29.341	436.83	1072.6	-17.6	436.7	1249.1	107.69	425.03	881.65	-53.147	409.78	893.42	45.469	732.74	778.73	252.34	452.36	961.92	-204.41	528.21	951.33	189.26	531.73	1103.6	-263.15	684.32	452.66	-122.3	664.3	1477.5	-62.702	617.67	878.75	258.33	507.72	745.72	-309.78	554.11	709.13	-334.67	447.72	318.61	81.43	546.74	1275.5	-188.05	566.69	1142.7	214.62	587.37	1267.6	-17.425	582.73	631.13	172.78	496.1	540.82	175.67	578.21	743.23	-286.03	293.06	27.86	22.056	534.18	1291.7	128.8	317.82	188.15	65.255	378.44	258.24	75.051	672.25	782.91	237.8	179.14	179.85	67.966	250.14	60.765	77.421	483.06	1486.5	25.293	508.25	633.55	196.51	493.14	440.7	168.03	490.16	867.71	-301.43	521.57	719.45	219.02	726.99	816.33	200.6	272.62	65.972	21.1	663.2	1485.4	14.359	624.31	739.75	-180.76	653.82	1165.8	-15.198	680.8	567.17	-133.42	655.14	654.34	-155.32	353.08	275.53	140.42	576.49	1000.1	256.75	245.92	156.96	22.438	477.87	991.43	-274.59	708.47	686.27	-115.59	737.81	163.77	-28.923	677.91	898.9	165.58	633.58	855.3	-149.5	655.61	29.481	-30.498	810.91	47.346	-23.212	702.49	249.44	-103.22	696.61	62.007	-72.037	230.52	149.21	99.836	787.25	29.012	-76.976	866.46	21.399	-33.041	729.65	346.06	-40.773	717.95	67.995	5.8258	725.43	254.3	-36.469
469	2.345	499.58	1481.8	-99.053	465.64	1343.8	-30.543	442.92	1073.7	-18.345	442.47	1250.6	106.65	431.04	882.92	-53.345	415.86	894.09	45.404	735.54	778.99	252.77	458.98	963.17	-204.93	532.57	953.21	188.73	538.48	1104.7	-263.79	686.81	452.84	-122.66	670.25	1478.7	-63.547	621.28	880.06	258.29	514.35	746.72	-309.96	560.74	709.87	-334.57	458.2	318.8	83.99	553	1276.6	-188.88	572.04	1144.4	213.88	593.29	1268.8	-18.213	591.21	632.5	173.34	505.66	541.21	176.93	584.76	744.09	-285.92	296.23	28.927	24.09	539.92	1293.3	127.73	326.22	190.57	66.942	387.92	259.58	77.033	675.1	783.7	238.13	187.49	185.31	67.721	254.53	63.684	78.405	488.76	1487.6	23.935	516.67	634.23	197	503.6	441.12	169.71	496.96	868.73	-301.78	528.96	720.43	218.84	730.17	816.57	200.89	278.01	68.282	22.527	668.93	1486.7	13.498	629.48	740.52	-181.21	659.8	1167.1	-15.852	684.31	567.39	-133.8	659.53	654.84	-155.78	361.6	278.18	141.69	581.01	1001.7	256.24	254.25	160.47	23.219	484.72	992.49	-275.16	712.99	686.25	-115.87	738.47	163.59	-29.079	682.76	898.99	165.16	639.52	856.62	-149.94	655.56	29.532	-30.528	810.9	47.274	-23.234	703.69	249.42	-103.45	696.66	62.007	-72.104	237.51	153.53	100.49	787.19	28.941	-77.056	866.51	21.2	-32.891	731.51	345.92	-41.103	718.02	68.003	5.7625	726.68	254.18	-36.702
470	2.35	505.63	1482.8	-100.34	471.52	1345	-31.695	448.98	1074.8	-19.089	448.21	1252	105.64	436.99	884.18	-53.582	421.89	894.74	45.284	738.3	779.23	253.25	465.57	964.4	-205.47	536.88	955.04	188.22	545.2	1105.8	-264.41	689.15	452.99	-123.02	676.19	1480	-64.37	624.83	881.33	258.28	521.07	747.73	-310.14	567.49	710.65	-334.45	468.84	319.08	86.504	559.26	1277.8	-189.66	577.34	1146	213.19	599.18	1270.1	-18.95	599.73	633.93	173.9	515.29	541.63	178.17	591.4	745.01	-285.8	300.05	30.122	26.41	545.61	1294.8	126.7	334.89	193	68.583	397.62	260.95	78.975	677.91	784.46	238.51	196.13	190.57	67.495	259.48	66.767	79.523	494.46	1488.8	22.618	525.12	634.94	197.48	514.15	441.57	171.32	503.78	869.75	-302.14	536.35	721.42	218.66	733.31	816.8	201.25	283.95	70.66	24.103	674.66	1488	12.66	634.53	741.21	-181.67	665.74	1168.4	-16.462	687.68	567.57	-134.2	663.78	655.27	-156.24	370.4	280.84	142.92	585.46	1003.3	255.76	262.88	163.91	23.979	491.54	993.54	-275.73	717.43	686.16	-116.2	739.08	163.4	-29.212	687.56	899.06	164.69	645.43	857.86	-150.4	655.52	29.57	-30.548	810.89	47.21	-23.251	704.83	249.39	-103.66	696.71	62.006	-72.16	244.86	157.8	101.13	787.13	28.881	-77.135	866.54	21.043	-32.754	733.25	345.77	-41.401	718.09	68.003	5.7109	727.85	254.05	-36.91
471	2.355	511.66	1483.8	-101.58	477.4	1346.1	-32.793	454.99	1075.9	-19.829	453.91	1253.4	104.65	442.89	885.41	-53.856	427.88	895.39	45.106	741	779.45	253.79	472.12	965.62	-206.03	541.13	956.82	187.73	551.91	1106.8	-265	691.38	453.09	-123.37	682.11	1481.1	-65.172	628.31	882.56	258.3	527.87	748.73	-310.3	574.33	711.45	-334.32	479.63	319.46	88.94	565.51	1278.9	-190.38	582.59	1147.6	212.55	605.06	1271.3	-19.634	608.27	635.41	174.46	524.97	542.1	179.39	598.12	745.97	-285.67	304.6	31.431	29.014	551.27	1296.4	125.74	343.83	195.44	70.157	407.53	262.37	80.861	680.68	785.21	238.91	205.03	195.57	67.276	265.02	69.98	80.77	500.15	1490	21.345	533.6	635.68	197.95	524.78	442.07	172.84	510.64	870.76	-302.5	543.74	722.42	218.46	736.42	817.02	201.67	290.48	73.074	25.829	680.39	1489.2	11.843	639.46	741.84	-182.13	671.64	1169.6	-17.025	690.94	567.7	-134.6	667.92	655.63	-156.71	379.46	283.48	144.08	589.86	1004.8	255.32	271.78	167.25	24.712	498.33	994.59	-276.3	721.77	686.01	-116.6	739.65	163.22	-29.322	692.31	899.13	164.15	651.33	859.04	-150.88	655.47	29.599	-30.558	810.87	47.149	-23.262	705.93	249.35	-103.86	696.76	62.003	-72.205	252.57	161.99	101.74	787.07	28.829	-77.211	866.56	20.919	-32.627	734.88	345.61	-41.667	718.15	67.995	5.6733	728.94	253.91	-37.091
472	2.36	517.67	1484.8	-102.77	483.26	1347.2	-33.837	460.96	1077	-20.564	459.59	1254.8	103.7	448.74	886.61	-54.165	433.81	896.03	44.869	743.66	779.66	254.38	478.63	966.81	-206.61	545.34	958.53	187.25	558.59	1107.9	-265.58	693.49	453.16	-123.71	688.02	1482.2	-65.952	631.74	883.73	258.34	534.76	749.73	-310.47	581.29	712.27	-334.19	490.57	319.94	91.273	571.76	1280.1	-191.06	587.8	1149.1	211.95	610.92	1272.5	-20.267	616.82	636.96	175.02	534.69	542.61	180.58	604.94	746.96	-285.53	309.93	32.832	31.895	556.89	1297.8	124.84	353.03	197.87	71.648	417.63	263.84	82.678	683.42	785.92	239.35	214.18	200.28	67.051	271.19	73.285	82.144	505.85	1491.1	20.121	542.09	636.45	198.39	535.47	442.61	174.28	517.51	871.74	-302.85	551.11	723.45	218.26	739.5	817.23	202.15	297.63	75.493	27.706	686.11	1490.4	11.048	644.28	742.39	-182.58	677.51	1170.8	-17.541	694.09	567.78	-135	671.94	655.94	-157.16	388.79	286.09	145.16	594.21	1006.3	254.91	280.98	170.48	25.41	505.1	995.62	-276.87	726.04	685.8	-117.04	740.2	163.03	-29.413	697.02	899.18	163.56	657.2	860.13	-151.38	655.43	29.622	-30.56	810.84	47.085	-23.265	706.98	249.3	-104.03	696.82	61.997	-72.236	260.64	166.06	102.32	787.01	28.783	-77.284	866.59	20.819	-32.508	736.43	345.44	-41.901	718.21	67.977	5.6515	729.97	253.77	-37.247
473	2.365	523.67	1485.8	-103.91	489.12	1348.2	-34.823	466.88	1078	-21.293	465.23	1256.1	102.79	454.53	887.78	-54.506	439.7	896.66	44.572	746.28	779.83	255.03	485.09	967.95	-207.21	549.5	960.16	186.8	565.25	1109	-266.14	695.51	453.2	-124.02	693.91	1483.3	-66.709	635.12	884.84	258.4	541.73	750.7	-310.62	588.35	713.1	-334.04	501.62	320.54	93.48	577.99	1281.1	-191.68	592.95	1150.6	211.4	616.76	1273.6	-20.849	625.36	638.56	175.58	544.43	543.18	181.7	611.84	747.98	-285.38	316.08	34.3	35.039	562.48	1299.2	124.01	362.49	200.27	73.046	427.92	265.37	84.415	686.13	786.61	239.82	223.56	204.65	66.806	278.01	76.639	83.646	511.56	1492.2	18.947	550.58	637.25	198.81	546.2	443.22	175.61	524.4	872.69	-303.21	558.47	724.49	218.04	742.55	817.4	202.71	305.4	77.882	29.735	691.83	1491.6	10.276	648.99	742.88	-183.02	683.34	1171.9	-18.008	697.14	567.82	-135.37	675.86	656.2	-157.6	398.39	288.65	146.17	598.49	1007.6	254.55	290.46	173.56	26.071	511.83	996.62	-277.45	730.24	685.53	-117.52	740.72	162.84	-29.488	701.67	899.23	162.91	663.05	861.14	-151.89	655.4	29.641	-30.552	810.82	47.018	-23.261	707.98	249.23	-104.19	696.88	61.987	-72.253	269.07	170	102.85	786.96	28.743	-77.355	866.62	20.735	-32.394	737.89	345.26	-42.109	718.26	67.951	5.6465	730.94	253.61	-37.38
